Coordinates
version=1
nRows=10
nColumns=28
inDegrees=yes

Units are S.I. units (second, meters, Newtons, ...)
Angles are in degrees.

endheader
time	pelvis_tilt	pelvis_list	pelvis_rotation	pelvis_tx	pelvis_ty	pelvis_tz	hip_flexion_r	hip_adduction_r	hip_rotation_r	knee_angle_r	ankle_angle_r	subtalar_angle_r	mtp_angle_r	hip_flexion_l	hip_adduction_l	hip_rotation_l	knee_angle_l	socket_flexion	socket_adduction	socket_rotation	socket_tx	socket_ty	socket_tz	foot_flex	lumbar_extension	lumbar_bending	lumbar_rotation
      0.00000000	     -1.81247902	     -0.56587726	      0.97177458	     -0.81192932	      0.97053885	      0.28733568	    -21.14271399	      1.27070791	      3.11671684	     -5.76406643	     -5.22154000	    -21.17231658	     14.91809183	     25.01839846	      1.51528990	      3.24551370	     -6.88104559	     -4.85818072	     -5.32269652	      3.87384106	      0.00000000	      0.00091602	      0.00000000	     -1.57380865	     -7.05704271	     -0.30414634	      2.09357663
      0.00416667	     -1.83636355	     -0.51201639	      0.90117053	     -0.80619692	      0.96928574	      0.28685731	    -21.34918270	      1.17684678	      3.12932766	     -5.94789393	     -5.32440194	    -21.15757428	     14.92713727	     24.98443136	      1.53453540	      3.27579028	     -7.09522839	     -4.69741661	     -5.26287445	      3.84214217	      0.00000000	      0.00056841	      0.00000000	     -1.94833394	     -6.96231397	     -0.40887595	      2.09536701
      0.00833333	     -1.83940414	     -0.43241904	      0.79216402	     -0.80019626	      0.96804588	      0.28636117	    -21.53881695	      1.03290027	      3.08885399	     -6.20869482	     -5.47112131	    -21.15182173	     14.95129033	     24.90902614	      1.57235593	      3.32089333	     -7.35088276	     -4.61174566	     -5.22548641	      3.75330916	      0.00000000	      0.00017602	      0.00000000	     -2.49620808	     -6.87501300	     -0.54787224	      2.12661549
      0.01250000	     -1.79885756	     -0.28572618	      0.69312034	     -0.79404421	      0.96685038	      0.28579640	    -21.74859703	      0.80897682	      2.92311864	     -6.53773128	     -5.70670701	    -21.14647001	     15.08185457	     24.81962889	      1.69823028	      3.36102830	     -7.74900184	     -4.63150681	     -5.19292738	      3.54475216	      0.00000000	     -0.00010155	      0.00000000	     -2.97735290	     -6.83693636	     -0.77142075	      2.27603227
      0.01666667	     -1.81793172	     -0.22807679	      0.64131097	     -0.78774800	      0.96553089	      0.28523003	    -21.92361509	      0.72100212	      2.90340120	     -6.82259411	     -5.82437882	    -21.12946769	     15.14133785	     24.78201202	      1.72997161	      3.41631944	     -8.01981290	     -4.47071343	     -5.13126979	      3.52932402	      0.00000000	     -0.00059287	      0.00000000	     -3.54103520	     -6.76045672	     -0.90422329	      2.31017548
      0.02083333	     -1.79859183	     -0.06045087	      0.52921770	     -0.78129710	      0.96433026	      0.28466349	    -22.04812155	      0.46391719	      2.62489133	     -7.26832282	     -6.11123780	    -21.09513209	     15.42185335	     24.72920985	      1.87710441	      3.41311590	     -8.50679253	     -4.50732824	     -5.09905109	      3.33869017	      0.00000000	     -0.00092101	      0.00000000	     -4.11232165	     -6.71349987	     -1.17898460	      2.47638463
      0.02500000	     -1.82462468	     -0.00785032	      0.52780751	     -0.77476962	      0.96301595	      0.28391200	    -22.20574118	      0.38923105	      2.62420542	     -7.59960307	     -6.24374744	    -21.06079807	     15.50523261	     24.69086529	      1.93647088	      3.43109473	     -8.76498034	     -4.33712671	     -5.03983643	      3.34356885	      0.00000000	     -0.00148520	      0.00000000	     -4.69658420	     -6.60577128	     -1.28131260	      2.49554871
      0.02916667	     -1.90477236	      0.24945445	      0.54892406	     -0.76796752	      0.96162410	      0.28316205	    -22.19593355	      0.04723360	      1.91352617	     -8.12611168	     -6.61777097	    -20.72688262	     17.12393951	     24.86195705	      2.22550859	      3.13197347	     -9.70269373	     -4.69073561	     -5.08682682	      3.51833966	      0.00000000	     -0.00172509	      0.00000000	     -5.31820974	     -6.40547619	     -1.68520250	      2.78632453
      0.03333333	     -1.91738111	      0.28714725	      0.50350269	     -0.76142120	      0.96046282	      0.28240837	    -22.28757926	     -0.03288870	      1.96115955	     -8.56119672	     -6.79155831	    -20.68909500	     17.20862385	     24.81123716	      2.26226013	      3.09746861	     -9.96053635	     -4.46644457	     -5.03107176	      3.49814711	      0.00000000	     -0.00232425	      0.00000000	     -5.89755501	     -6.35370767	     -1.76738784	      2.72346986
      0.03750000	     -2.02861229	      0.52894190	      0.41153547	     -0.75455730	      0.95922377	      0.28160848	    -22.13058985	     -0.40679991	      1.50069835	     -9.27459717	     -7.26267806	    -20.55897762	     18.18317470	     24.88361193	      2.51827672	      2.73971915	    -10.50437503	     -4.53228194	     -5.12161338	      3.62838687	      0.00000000	     -0.00267495	      0.00000000	     -6.51648538	     -6.12774895	     -2.07855060	      2.74444844
